<svg width="24" height="24" viewBox="0 0 24 24" xmlns="http://www.w3.org/2000/svg" xmlns:xlink="http://www.w3.org/1999/xlink"><title>arrow-right</title><defs><path d="M17.586 11l-5.364-5.364c-.39-.39-.39-1.024 0-1.414.39-.39 1.024-.39 1.414 0l7.07 7.07c.182.182.294.432.294.708 0 .276-.112.526-.293.707l-7.07 7.07c-.39.392-1.025.392-1.415 0-.39-.39-.39-1.023 0-1.413L17.586 13H4c-.552 0-1-.448-1-1s.448-1 1-1h13.586z" id="a"/></defs><g fill="none" fill-rule="evenodd"><mask id="b" fill="#fff"><use xlink:href="#a"/></mask><path d="M0 0h24v24H0z" mask="url(#b)" fill="#4aa69d"/></g></svg>